<svg width="69" height="70" viewBox="0 0 69 70" fill="none" xmlns="http://www.w3.org/2000/svg">
<g clip-path="url(#clip0_8_14)">
<mask id="mask0_8_14" style="mask-type:alpha" maskUnits="userSpaceOnUse" x="0" y="0" width="69" height="70">
<circle cx="34.5" cy="35" r="34.5" fill="#F578A5"/>
</mask>
<g mask="url(#mask0_8_14)">
<circle cx="34.5" cy="35" r="34.5" fill="#56B280"/>
<path d="M18.6301 69V69.7547H19.3848H51.3848H52.1395V69V55.5729C52.1395 54.3396 51.162 53.3282 49.9294 53.2862L20.9961 52.2998C19.7026 52.2557 18.6301 53.2923 18.6301 54.5865V69Z" fill="white" stroke="white" stroke-width="1.50938"/>
<g clip-path="url(#clip1_8_14)">
<path d="M25.2776 24.7254C32.3085 14.9497 29.2842 6.99253 29.2927 6.98309C29.1436 6.5846 29.3459 6.1408 29.7444 5.99172C29.9454 5.91653 30.1687 5.92865 30.3603 6.02507C43.0498 12.0971 48.5104 19.9355 49.5561 27.0224C49.9718 29.7757 49.7119 32.5889 48.7989 35.2196C47.9623 37.647 46.5686 39.8447 44.7298 41.6365C41.1926 45.0525 36.2493 46.6272 31.3706 45.0308C30.1226 44.6236 28.945 44.0263 27.8793 43.2598C25.7415 41.7255 24.1199 39.5782 23.2291 37.1021C22.2839 34.4539 22.2538 31.5654 23.1437 28.8981C23.6352 27.4052 24.3551 25.9976 25.2776 24.7254Z" fill="white"/>
<path d="M29.4473 7.23546C29.1383 6.94312 29.1246 6.45556 29.417 6.14654C29.7093 5.83753 30.1968 5.82389 30.5059 6.11622C30.5286 6.13773 30.5499 6.16059 30.5699 6.18472C30.5982 6.21021 36.7248 12.6322 37.6001 25.0445L37.6092 25.1609C37.7982 28.0619 37.7048 30.9745 37.3307 33.8575L41.52 30.647C41.8709 30.4064 42.3504 30.4958 42.5909 30.8467C42.8086 31.1643 42.7584 31.594 42.4732 31.8528L36.9983 36.0357C35.7726 43.2415 31.4519 53.4357 37.1717 59.8161C37.4472 60.1403 37.4077 60.6264 37.0835 60.9019C36.7749 61.1641 36.316 61.1426 36.0333 60.8527C29.1743 53.2074 34.1652 43.7364 35.5312 35.5462L35.5491 35.4313C36.1045 32.1721 36.2949 28.8611 36.1167 25.5597L31.1924 21.9518C30.8412 21.7117 30.7511 21.2324 30.9912 20.8811C31.2313 20.5299 31.7106 20.4398 32.0619 20.6799C32.0764 20.6898 32.0907 20.7003 32.1044 20.7112L35.9199 23.5202C34.7297 12.7606 29.4696 7.26126 29.4473 7.23546Z" fill="#56B280"/>
</g>
</g>
</g>
<defs>
<clipPath id="clip0_8_14">
<rect width="69" height="69" fill="white" transform="translate(0 0.5)"/>
</clipPath>
<clipPath id="clip1_8_14">
<rect width="42.343" height="42.343" fill="white" transform="translate(4.06689 34.3001) rotate(-48)"/>
</clipPath>
</defs>
</svg>
